<?xml version="1.0" encoding="UTF-8"?>
<svg xmlns="http://www.w3.org/2000/svg" version="1.1" viewBox="0 0 490.08 254.4">
  <!-- Generator: Adobe Illustrator 30.2.1, SVG Export Plug-In . SVG Version: 2.1.1 Build 1)  -->
  <g id="Circle">
    <path d="M207.63,216.9l-4.25,3.11c-.5.6-1.15.89-1.8,1.33-4.94,3.27-10.07,6.01-15.42,8.54l-2,.95c-9.91,4.69-27.85,8.94-38.92,9.35-.97.04-1.89.21-2.88.21l-10.8-.07-3.36-.25-2.86-.27c-11.9-1.11-23.6-3.85-34.37-8.96l-2-.95c-5.35-2.54-10.62-5.08-15.43-8.52l-1.98-1.41c-9.75-6.98-12.83-9.96-21.05-18.51-.62-.64-1.08-1.27-1.64-1.94-4.71-5.65-9.3-11.92-12.83-18.37-3.94-7.21-6.81-13.3-9.29-21.21-7.52-23.96-7.52-47.91,0-71.87,2.48-7.9,5.35-14,9.29-21.21,3.54-6.48,8.11-12.7,12.83-18.37.57-.68,1.02-1.3,1.64-1.95,8.57-8.9,11.08-11.32,21.2-18.61l1.83-1.32c4.8-3.46,10.08-5.99,15.43-8.52l2-.95c11.02-5.22,26.61-8.4,38.92-9.34l2.64-.2h10.07s2.64.2,2.64.2c12.31.94,27.9,4.12,38.92,9.34l2,.95c5.33,2.53,12.86,6.53,17.54,10.03l6.86,5.14c.13.1.28.16.33.24.09.18-.04.15-.1.19-.1.06-.33.06-.5.06h-16.04s-3.64-2.22-3.64-2.22c-5.81-3.52-11.99-6.18-18.46-8.32l-4.7-1.56c-6.41-2.12-13.01-3.24-19.78-3.76l-3.62-.28c-10.44-.8-26.45.75-36.36,4.04l-4.87,1.61c-6.59,2.18-12.78,5-18.75,8.55-4.79,2.85-9.42,5.59-13.55,9.29l-1.66,1.49c-3.25,2.92-6.57,5.68-9.47,8.96l-1.82,2.05c-2.13,2.41-4.17,4.78-6.04,7.42-3.85,5.43-8.59,12.99-11.13,19.06l-.8,1.91c-1.2,2.87-2.2,5.74-3.25,8.67l-.89,2.48c-3.03,8.45-4.52,22.16-4.46,31.31s1.48,22.02,4.46,30.36l.89,2.48c1.18,3.31,2.31,6.51,3.7,9.75,1.52,3.55,3.18,6.87,5.16,10.16s4.06,6.52,6.33,9.74c1.86,2.64,3.9,5.01,6.04,7.42l1.82,2.05c2.91,3.28,6.22,6.05,9.47,8.96l1.66,1.49c4.13,3.7,8.76,6.44,13.55,9.29,6.02,3.58,12.27,6.41,18.91,8.61l4.69,1.56c5.7,1.89,17.42,3.9,23.4,4.04l6.35.15c9.44.22,21.16-1.53,30.01-4.15,1.6-.65,3.07-1.04,4.69-1.58,6.2-2.09,12.01-4.68,17.75-7.91l17.74.05"/>
  </g>
  <g id="Text">
    <g id="Well-_Trained__Mind__Press">
      <path d="M215.8,37.44v1.18c-.94.08-1.61.31-2.01.68-.39.37-.58.91-.56,1.59.02.69.21,1.58.56,2.68l9.15,27.32-1.53,1.71,8.02-24.96.89,1.48-9.62,30.33h-2.01l-12.74-37.05c-.51-1.49-1.14-2.49-1.89-2.98-.75-.49-1.44-.76-2.06-.8v-1.18c.94.04,2.06.08,3.36.12,1.3.04,2.56.06,3.78.06,1.42,0,2.7-.02,3.86-.06,1.16-.04,2.09-.08,2.8-.12ZM257.33,37.44v1.18c-.79.2-1.63.72-2.54,1.56-.91.85-1.67,2.25-2.3,4.22l-10.86,35.05h-2.01l-12.51-37.23c-.47-1.45-1.01-2.41-1.62-2.86-.61-.45-1.19-.7-1.74-.74v-1.18c.83.04,1.85.08,3.07.12,1.22.04,2.4.06,3.54.06,1.61,0,3.12-.02,4.51-.06,1.4-.04,2.51-.08,3.33-.12v1.18c-1.18.04-2.11.17-2.8.38-.69.22-1.08.66-1.18,1.33-.1.67.09,1.75.56,3.24l8.67,26.67-1,1.3,7.43-23.42c.79-2.44,1.15-4.34,1.09-5.69s-.51-2.32-1.36-2.89c-.85-.57-2.08-.87-3.69-.91v-1.18c1.18.04,2.36.08,3.54.12,1.18.04,2.32.06,3.42.06.98,0,1.82-.02,2.51-.06.69-.04,1.33-.08,1.92-.12Z"/>
      <path d="M287.72,43.34c-.16,1.3-.27,2.56-.33,3.78-.06,1.22-.09,2.16-.09,2.83,0,.71.02,1.39.06,2.04s.08,1.19.12,1.62h-1.36c-.35-3.34-1.14-5.66-2.36-6.96-1.22-1.3-3.07-1.95-5.55-1.95h-3.6c-1.18,0-2.09.1-2.74.29-.65.2-1.09.62-1.33,1.27s-.35,1.64-.35,2.98v24.07c0,1.3.12,2.28.35,2.95.24.67.68,1.1,1.33,1.3.65.2,1.56.29,2.74.29h3.72c1.89,0,3.44-.31,4.66-.94,1.22-.63,2.18-1.69,2.89-3.19.71-1.49,1.18-3.48,1.42-5.96h1.36c-.12,1.06-.18,2.48-.18,4.25,0,.71.03,1.73.09,3.07.06,1.34.17,2.71.32,4.13-1.93-.08-4.09-.13-6.49-.15-2.4-.02-4.54-.03-6.43-.03h-4.69c-1.95,0-4.01,0-6.2.03-2.18.02-4.26.07-6.22.15v-1.18c1.34-.08,2.34-.24,3.01-.47.67-.24,1.11-.71,1.33-1.42.22-.71.32-1.77.32-3.19v-23.36c0-1.45-.11-2.53-.32-3.22-.22-.69-.66-1.16-1.33-1.42-.67-.26-1.67-.4-3.01-.44v-1.18c1.97.04,4.04.08,6.22.12,2.18.04,4.25.06,6.2.06h4.69c1.73,0,3.69,0,5.87-.03,2.18-.02,4.14-.07,5.87-.15ZM279.04,60.57v1.18h-10.62v-1.18h10.62ZM280.99,54.44c-.16,1.81-.23,3.19-.21,4.13.02.94.03,1.81.03,2.6s.02,1.65.06,2.6.14,2.32.29,4.13h-1.36c-.12-1.02-.34-2-.68-2.92-.33-.92-.87-1.69-1.59-2.3-.73-.61-1.78-.91-3.16-.91v-1.18c1.42,0,2.47-.35,3.16-1.06.69-.71,1.18-1.54,1.47-2.51.29-.96.5-1.82.62-2.57h1.36Z"/>
      <path d="M309.66,43.34v1.18c-1.3.04-2.28.19-2.95.44-.67.26-1.12.73-1.36,1.42-.24.69-.35,1.76-.35,3.22v23.6c0,1.34.12,2.34.35,3.01.24.67.68,1.11,1.33,1.33.65.22,1.56.32,2.74.32h3.25c1.69,0,3.2-.35,4.51-1.06,1.32-.71,2.41-1.85,3.27-3.42.87-1.57,1.42-3.72,1.65-6.43h1.36c-.12,1.22-.18,2.83-.18,4.84,0,.71.03,1.76.09,3.16.06,1.4.17,2.82.32,4.28-1.93-.08-4.09-.13-6.49-.15-2.4-.02-4.54-.03-6.43-.03h-4.69c-1.95,0-4.01,0-6.2.03-2.18.02-4.26.07-6.22.15v-1.18c1.34-.08,2.34-.24,3.01-.47.67-.24,1.11-.71,1.33-1.42.22-.71.32-1.77.32-3.19v-23.36c0-1.45-.11-2.53-.32-3.22-.22-.69-.66-1.16-1.33-1.42-.67-.26-1.67-.4-3.01-.44v-1.18c.9.04,2.07.08,3.51.12,1.44.04,2.98.06,4.63.06,1.45,0,2.89-.02,4.31-.06,1.42-.04,2.6-.08,3.54-.12Z"/>
      <path d="M343.17,43.34v1.18c-1.3.04-2.28.19-2.95.44-.67.26-1.12.73-1.36,1.42-.24.69-.35,1.76-.35,3.22v23.6c0,1.34.12,2.34.35,3.01.24.67.68,1.11,1.33,1.33.65.22,1.56.32,2.74.32h3.25c1.69,0,3.2-.35,4.51-1.06,1.32-.71,2.41-1.85,3.27-3.42.87-1.57,1.42-3.72,1.65-6.43h1.36c-.12,1.22-.18,2.83-.18,4.84,0,.71.03,1.76.09,3.16.06,1.4.17,2.82.32,4.28-1.93-.08-4.09-.13-6.49-.15-2.4-.02-4.54-.03-6.43-.03h-4.69c-1.95,0-4.01,0-6.2.03-2.18.02-4.26.07-6.22.15v-1.18c1.34-.08,2.34-.24,3.01-.47.67-.24,1.11-.71,1.33-1.42.22-.71.32-1.77.32-3.19v-23.36c0-1.45-.11-2.53-.32-3.22-.22-.69-.66-1.16-1.33-1.42-.67-.26-1.67-.4-3.01-.44v-1.18c.9.04,2.07.08,3.51.12,1.44.04,2.98.06,4.63.06,1.45,0,2.89-.02,4.31-.06,1.42-.04,2.6-.08,3.54-.12Z"/>
      <path d="M382,59.33v3.95h-21.3v-3.95h21.3Z"/>
      <path d="M254.03,83.44c-.16,1.65-.27,3.25-.33,4.81-.06,1.55-.09,2.74-.09,3.57,0,.91.02,1.77.06,2.6.04.83.08,1.53.12,2.12h-1.36c-.39-2.95-.91-5.27-1.56-6.96-.65-1.69-1.58-2.91-2.8-3.66-1.22-.75-2.97-1.12-5.25-1.12h-2.54v33.63c0,1.57.15,2.75.44,3.54.29.79.89,1.31,1.77,1.56.89.26,2.17.42,3.86.5v1.18c-1.1-.08-2.52-.13-4.25-.15-1.73-.02-3.5-.03-5.31-.03s-3.67,0-5.34.03c-1.67.02-3.02.07-4.04.15v-1.18c1.69-.08,2.97-.25,3.84-.5.86-.26,1.45-.78,1.77-1.56.31-.79.47-1.97.47-3.54v-33.63h-2.6c-2.2,0-3.93.37-5.19,1.12-1.26.75-2.2,1.97-2.83,3.66-.63,1.69-1.14,4.01-1.53,6.96h-1.36c.08-.59.13-1.3.15-2.12.02-.83.03-1.69.03-2.6,0-.83-.03-2.02-.09-3.57-.06-1.55-.17-3.16-.32-4.81,1.69.04,3.54.08,5.55.12,2.01.04,4.03.06,6.08.06h11.03c2.01,0,4.03-.02,6.08-.06,2.04-.04,3.89-.08,5.55-.12Z"/>
      <path d="M257.98,89.34c.86.04,1.99.08,3.36.12,1.38.04,2.73.06,4.07.06,1.81,0,3.54-.02,5.19-.06,1.65-.04,2.81-.06,3.48-.06,4.88,0,8.49.84,10.83,2.51,2.34,1.67,3.51,3.81,3.51,6.4,0,1.1-.24,2.22-.71,3.36-.47,1.14-1.26,2.19-2.36,3.16-1.1.96-2.62,1.78-4.57,2.45-1.95.67-4.42,1.06-7.4,1.18l-6.02.24v-1.18h5.43c2.36,0,4.16-.37,5.4-1.12,1.24-.75,2.07-1.77,2.51-3.07.43-1.3.65-2.73.65-4.31,0-2.75-.63-4.86-1.89-6.31-1.26-1.46-3.46-2.18-6.61-2.18-1.5,0-2.46.33-2.89,1-.43.67-.65,2.03-.65,4.07v23.36c0,1.42.12,2.48.35,3.19.24.71.69,1.18,1.36,1.42.67.24,1.65.39,2.95.47v1.18c-.94-.08-2.16-.13-3.66-.15-1.5-.02-3.01-.03-4.54-.03s-3.05,0-4.42.03c-1.38.02-2.5.07-3.36.15v-1.18c1.34-.08,2.34-.24,3.01-.47.67-.24,1.11-.71,1.33-1.42.21-.71.32-1.77.32-3.19v-23.36c0-1.45-.11-2.54-.32-3.24-.22-.71-.66-1.18-1.33-1.42-.67-.24-1.67-.37-3.01-.41v-1.18ZM268.36,107.99c2.12.08,3.75.14,4.87.18,1.12.04,2.01.07,2.68.09.67.02,1.36.09,2.06.21,2.16.28,3.97.87,5.43,1.77,1.46.91,2.44,2.46,2.95,4.66l1.24,5.31c.31,1.3.66,2.21,1.03,2.74.38.53.86.8,1.45.8.51,0,1.03-.18,1.56-.53s1.01-.77,1.45-1.24l.83.77c-.75.98-1.63,1.78-2.65,2.39-1.02.61-2.32.91-3.89.91-2.04,0-3.57-.46-4.57-1.39-1-.92-1.66-2-1.98-3.22l-1.77-7.2c-.55-2.32-1.37-3.82-2.45-4.51-1.08-.69-2.55-1.03-4.4-1.03h-3.83v-.71Z"/>
      <path d="M313.14,89.11l13.87,31.15c.67,1.42,1.35,2.39,2.04,2.92.69.53,1.33.82,1.92.86v1.18c-.83-.08-1.85-.13-3.07-.15-1.22-.02-2.46-.03-3.72-.03-1.65,0-3.2,0-4.63.03-1.44.02-2.61.07-3.51.15v-1.18c1.93-.08,3.19-.44,3.78-1.09s.43-1.94-.47-3.86l-10.03-22.77.77-.59-8.97,20.12c-.59,1.34-.96,2.51-1.12,3.51s-.1,1.84.18,2.51c.28.67.79,1.17,1.53,1.5.75.33,1.73.56,2.95.68v1.18c-.75-.08-1.62-.13-2.62-.15-1-.02-2.08-.03-3.22-.03-.67,0-1.53,0-2.6.03-1.06.02-1.87.07-2.42.15v-1.18c1.1-.27,2.04-.91,2.8-1.92.77-1,1.48-2.29,2.15-3.86l12.86-29.15h1.53ZM318.57,111.17v1.18h-16.4l.59-1.18h15.81Z"/>
      <path d="M349.84,89.34v1.18c-1.3.04-2.28.19-2.95.44-.67.26-1.12.73-1.36,1.42-.24.69-.35,1.76-.35,3.22v23.36c0,1.42.12,2.48.35,3.19.24.71.69,1.18,1.36,1.42.67.24,1.65.39,2.95.47v1.18c-.94-.08-2.13-.13-3.57-.15-1.44-.02-2.88-.03-4.34-.03-1.61,0-3.14,0-4.57.03-1.44.02-2.61.07-3.51.15v-1.18c1.34-.08,2.34-.24,3.01-.47.67-.24,1.11-.71,1.33-1.42.22-.71.32-1.77.32-3.19v-23.36c0-1.45-.11-2.53-.32-3.22-.22-.69-.66-1.16-1.33-1.42-.67-.26-1.67-.4-3.01-.44v-1.18c.9.04,2.07.08,3.51.12,1.44.04,2.96.06,4.57.06,1.46,0,2.9-.02,4.34-.06,1.44-.04,2.62-.08,3.57-.12Z"/>
      <path d="M390.73,89.34v1.18c-1.34.08-2.34.31-3.01.68-.67.37-1.11.97-1.33,1.8-.22.83-.32,2.01-.32,3.54v28.91h-1.95l-23.6-31.56v24.13c0,1.5.13,2.67.38,3.51.25.85.79,1.45,1.59,1.8.81.35,2.02.59,3.63.71v1.18c-.79-.08-1.76-.13-2.92-.15-1.16-.02-2.27-.03-3.33-.03-.98,0-1.97,0-2.95.03-.98.02-1.79.07-2.42.15v-1.18c1.3-.12,2.28-.35,2.95-.71s1.12-.95,1.36-1.8c.24-.85.35-2.02.35-3.51v-22.42c0-1.45-.12-2.53-.35-3.22-.24-.69-.69-1.16-1.36-1.42-.67-.26-1.65-.4-2.95-.44v-1.18c.63.04,1.43.08,2.42.12.98.04,1.97.06,2.95.06,1.1,0,2.16-.02,3.19-.06,1.02-.04,1.97-.08,2.83-.12l18.82,25.25v-18.05c0-1.53-.14-2.71-.41-3.54-.28-.83-.82-1.43-1.62-1.8-.81-.37-2-.6-3.57-.68v-1.18c.75.04,1.71.08,2.89.12,1.18.04,2.3.06,3.36.06.98,0,1.97-.02,2.95-.06.98-.04,1.79-.08,2.42-.12Z"/>
      <path d="M423.47,89.34c-.16,1.3-.27,2.56-.33,3.78-.06,1.22-.09,2.16-.09,2.83,0,.71.02,1.39.06,2.04s.08,1.19.12,1.62h-1.36c-.35-3.34-1.14-5.66-2.36-6.96-1.22-1.3-3.07-1.95-5.55-1.95h-3.6c-1.18,0-2.09.1-2.74.29-.65.2-1.09.62-1.33,1.27-.24.65-.35,1.64-.35,2.98v24.07c0,1.3.12,2.28.35,2.95.24.67.68,1.1,1.33,1.3.65.2,1.56.29,2.74.29h3.72c1.89,0,3.44-.31,4.66-.94,1.22-.63,2.18-1.69,2.89-3.19.71-1.49,1.18-3.48,1.42-5.96h1.36c-.12,1.06-.18,2.48-.18,4.25,0,.71.03,1.73.09,3.07.06,1.34.17,2.71.32,4.13-1.93-.08-4.09-.13-6.49-.15-2.4-.02-4.54-.03-6.43-.03h-4.69c-1.95,0-4.01,0-6.2.03-2.18.02-4.26.07-6.22.15v-1.18c1.34-.08,2.34-.24,3.01-.47.67-.24,1.11-.71,1.33-1.42.22-.71.32-1.77.32-3.19v-23.36c0-1.45-.11-2.53-.32-3.22-.22-.69-.66-1.16-1.33-1.42-.67-.26-1.67-.4-3.01-.44v-1.18c1.97.04,4.04.08,6.22.12,2.18.04,4.25.06,6.2.06h4.69c1.73,0,3.69,0,5.87-.03,2.18-.02,4.14-.07,5.87-.15ZM414.8,106.57v1.18h-10.62v-1.18h10.62ZM416.75,100.44c-.16,1.81-.23,3.19-.21,4.13.02.94.03,1.81.03,2.6s.02,1.65.06,2.6.14,2.32.29,4.13h-1.36c-.12-1.02-.34-2-.68-2.92-.33-.92-.87-1.69-1.59-2.3-.73-.61-1.78-.91-3.16-.91v-1.18c1.42,0,2.47-.35,3.16-1.06.69-.71,1.18-1.54,1.47-2.51.29-.96.5-1.82.62-2.57h1.36Z"/>
      <path d="M446.72,89.34c6.49,0,11.31,1.5,14.46,4.48,3.15,2.99,4.72,7.32,4.72,12.98,0,3.7-.77,6.92-2.3,9.68-1.53,2.75-3.77,4.9-6.7,6.43-2.93,1.53-6.48,2.3-10.65,2.3-.63,0-1.46-.02-2.48-.06-1.02-.04-2.08-.07-3.19-.09-1.1-.02-2.1-.03-3.01-.03-1.42,0-2.81,0-4.19.03-1.38.02-2.5.07-3.36.15v-1.18c1.34-.08,2.34-.24,3.01-.47.67-.24,1.11-.71,1.33-1.42.22-.71.32-1.77.32-3.19v-23.36c0-1.45-.11-2.54-.32-3.24-.22-.71-.66-1.18-1.33-1.42-.67-.24-1.67-.37-3.01-.41v-1.18c.87.04,1.99.09,3.36.15,1.38.06,2.73.07,4.07.03.94-.04,1.99-.07,3.13-.09,1.14-.02,2.25-.04,3.33-.06,1.08-.02,2.02-.03,2.8-.03ZM445.54,90.41c-1.73,0-2.86.33-3.39,1-.53.67-.8,2.03-.8,4.07v23.6c0,2.05.27,3.4.83,4.07.55.67,1.67,1,3.36,1,3.5,0,6.2-.66,8.11-1.98,1.91-1.32,3.25-3.25,4.01-5.78.77-2.54,1.15-5.65,1.15-9.35s-.42-6.83-1.27-9.29c-.85-2.46-2.23-4.3-4.16-5.52-1.93-1.22-4.54-1.83-7.85-1.83Z"/>
      <path d="M269.72,129.44v1.18c-1.34.04-2.34.19-3.01.44-.67.26-1.11.73-1.33,1.42-.22.69-.33,1.76-.33,3.21v29.26c0,1.42.11,2.48.33,3.19.22.71.66,1.18,1.33,1.42.67.24,1.67.39,3.01.47v1.18c-.98-.08-2.2-.13-3.66-.15-1.46-.02-2.93-.03-4.42-.03-1.65,0-3.21,0-4.66.03-1.46.02-2.62.07-3.48.15v-1.18c1.34-.08,2.35-.24,3.04-.47.69-.24,1.15-.71,1.39-1.42s.35-1.77.35-3.19v-32.27l.29.12-14.51,38.65h-.94l-15.22-38.23v30.21c0,1.65.12,2.94.35,3.86.24.92.75,1.58,1.53,1.98.79.39,1.99.65,3.6.77v1.18c-.75-.08-1.7-.13-2.86-.15-1.16-.02-2.25-.03-3.27-.03s-1.97,0-2.95.03c-.98.02-1.79.07-2.42.15v-1.18c1.3-.12,2.28-.36,2.95-.74.67-.37,1.12-1.01,1.36-1.92.24-.9.35-2.14.35-3.72v-27.97c0-1.45-.12-2.53-.35-3.21s-.69-1.16-1.36-1.42c-.67-.26-1.65-.4-2.95-.44v-1.18c.63.04,1.44.08,2.42.12.98.04,1.97.06,2.95.06,1.14,0,2.29-.02,3.45-.06,1.16-.04,2.15-.08,2.98-.12l13.04,33.51-1.12.77,12.8-34.1h3.25c1.49,0,2.97-.02,4.42-.06,1.46-.04,2.67-.08,3.66-.12Z"/>
      <path d="M289.43,135.34v1.18c-1.3.04-2.28.19-2.95.44-.67.26-1.12.73-1.36,1.42-.24.69-.35,1.76-.35,3.22v23.36c0,1.42.12,2.48.35,3.19.24.71.69,1.18,1.36,1.42.67.24,1.65.39,2.95.47v1.18c-.94-.08-2.13-.13-3.57-.15-1.44-.02-2.88-.03-4.34-.03-1.61,0-3.14,0-4.57.03-1.44.02-2.61.07-3.51.15v-1.18c1.34-.08,2.34-.24,3.01-.47.67-.24,1.11-.71,1.33-1.42.22-.71.32-1.77.32-3.19v-23.36c0-1.46-.11-2.53-.32-3.22-.22-.69-.66-1.16-1.33-1.42-.67-.25-1.67-.4-3.01-.44v-1.18c.9.04,2.07.08,3.51.12,1.44.04,2.96.06,4.57.06,1.46,0,2.9-.02,4.34-.06,1.44-.04,2.62-.08,3.57-.12Z"/>
      <path d="M329.49,135.34v1.18c-1.34.08-2.34.31-3.01.68-.67.37-1.11.97-1.33,1.8-.22.83-.32,2.01-.32,3.54v28.91h-1.95l-23.6-31.57v24.13c0,1.5.13,2.67.38,3.51.25.85.79,1.45,1.59,1.8.81.35,2.02.59,3.63.71v1.18c-.79-.08-1.76-.13-2.92-.15-1.16-.02-2.27-.03-3.33-.03-.98,0-1.97,0-2.95.03-.98.02-1.79.07-2.42.15v-1.18c1.3-.12,2.28-.35,2.95-.71.67-.35,1.12-.95,1.36-1.8.24-.85.35-2.02.35-3.51v-22.42c0-1.46-.12-2.53-.35-3.22-.24-.69-.69-1.16-1.36-1.42-.67-.25-1.65-.4-2.95-.44v-1.18c.63.04,1.43.08,2.42.12.98.04,1.97.06,2.95.06,1.1,0,2.16-.02,3.19-.06,1.02-.04,1.97-.08,2.83-.12l18.82,25.25v-18.05c0-1.53-.14-2.71-.41-3.54-.28-.83-.82-1.43-1.62-1.8-.81-.37-2-.6-3.57-.68v-1.18c.75.04,1.71.08,2.89.12,1.18.04,2.3.06,3.36.06.98,0,1.97-.02,2.95-.06.98-.04,1.79-.08,2.42-.12Z"/>
      <path d="M349.19,135.34c6.49,0,11.31,1.5,14.46,4.48,3.15,2.99,4.72,7.32,4.72,12.98,0,3.7-.77,6.92-2.3,9.68-1.53,2.75-3.77,4.9-6.7,6.43-2.93,1.53-6.48,2.3-10.65,2.3-.63,0-1.46-.02-2.48-.06-1.02-.04-2.08-.07-3.19-.09-1.1-.02-2.1-.03-3.01-.03-1.42,0-2.81,0-4.19.03-1.38.02-2.5.07-3.36.15v-1.18c1.34-.08,2.34-.24,3.01-.47.67-.24,1.11-.71,1.33-1.42.22-.71.32-1.77.32-3.19v-23.36c0-1.46-.11-2.54-.32-3.25-.22-.71-.66-1.18-1.33-1.42s-1.67-.37-3.01-.41v-1.18c.87.04,1.99.09,3.36.15,1.38.06,2.73.07,4.07.03.94-.04,1.99-.07,3.13-.09,1.14-.02,2.25-.04,3.33-.06,1.08-.02,2.02-.03,2.8-.03ZM348.01,136.41c-1.73,0-2.86.33-3.39,1-.53.67-.8,2.03-.8,4.07v23.6c0,2.05.27,3.4.83,4.07.55.67,1.67,1,3.36,1,3.5,0,6.2-.66,8.11-1.98,1.91-1.32,3.25-3.25,4.01-5.78.77-2.54,1.15-5.65,1.15-9.35s-.42-6.83-1.27-9.29c-.85-2.46-2.23-4.3-4.16-5.52-1.93-1.22-4.54-1.83-7.85-1.83Z"/>
      <path d="M193.02,172.44c.9.04,2.07.08,3.51.12,1.44.04,2.86.06,4.28.06,1.89,0,3.69-.02,5.4-.06,1.71-.04,2.92-.06,3.63-.06,4.99,0,8.73,1.08,11.21,3.25s3.72,4.96,3.72,8.38c0,1.42-.25,2.9-.74,4.45-.49,1.55-1.35,2.99-2.57,4.31-1.22,1.32-2.87,2.39-4.96,3.21-2.09.83-4.74,1.24-7.97,1.24h-5.78v-1.18h5.19c2.63,0,4.65-.53,6.05-1.59,1.4-1.06,2.34-2.46,2.83-4.19.49-1.73.74-3.6.74-5.61,0-3.74-.67-6.53-2.01-8.38-1.34-1.85-3.66-2.77-6.96-2.77-1.69,0-2.8.33-3.33,1-.53.67-.8,2.03-.8,4.07v29.15c0,1.46.16,2.55.47,3.27.31.73.9,1.21,1.77,1.45.86.24,2.14.38,3.84.41v1.24c-1.06-.08-2.44-.13-4.13-.15-1.69-.02-3.44-.03-5.25-.03-1.57,0-3.08,0-4.51.03-1.44.02-2.65.07-3.63.15v-1.18c1.34-.08,2.34-.24,3.01-.47.67-.24,1.11-.71,1.33-1.42.22-.71.32-1.77.32-3.19v-29.26c0-1.46-.11-2.53-.32-3.22-.22-.69-.67-1.16-1.36-1.42-.69-.26-1.68-.4-2.98-.44v-1.18Z"/>
      <path d="M228.66,178.34c.86.04,1.99.08,3.36.12,1.38.04,2.73.06,4.07.06,1.81,0,3.54-.02,5.19-.06,1.65-.04,2.81-.06,3.48-.06,4.88,0,8.49.84,10.83,2.51,2.34,1.67,3.51,3.81,3.51,6.4,0,1.1-.24,2.22-.71,3.36-.47,1.14-1.26,2.19-2.36,3.16-1.1.96-2.62,1.78-4.57,2.45-1.95.67-4.42,1.06-7.4,1.18l-6.02.24v-1.18h5.43c2.36,0,4.16-.37,5.4-1.12,1.24-.75,2.07-1.77,2.51-3.07.43-1.3.65-2.73.65-4.31,0-2.75-.63-4.86-1.89-6.31-1.26-1.46-3.46-2.18-6.61-2.18-1.5,0-2.46.33-2.89,1-.43.67-.65,2.03-.65,4.07v23.36c0,1.42.12,2.48.35,3.19.24.71.69,1.18,1.36,1.42.67.24,1.65.39,2.95.47v1.18c-.94-.08-2.16-.13-3.66-.15-1.5-.02-3.01-.03-4.54-.03s-3.05,0-4.42.03c-1.38.02-2.5.07-3.36.15v-1.18c1.34-.08,2.34-.24,3.01-.47.67-.24,1.11-.71,1.33-1.42.22-.71.32-1.77.32-3.19v-23.36c0-1.45-.11-2.54-.32-3.25-.22-.71-.66-1.18-1.33-1.42-.67-.24-1.67-.37-3.01-.41v-1.18ZM239.04,196.99c2.12.08,3.75.14,4.87.18,1.12.04,2.02.07,2.68.09.67.02,1.36.09,2.06.21,2.16.28,3.97.87,5.43,1.77,1.45.91,2.44,2.46,2.95,4.66l1.24,5.31c.31,1.3.66,2.21,1.03,2.74.37.53.86.8,1.45.8.51,0,1.03-.18,1.56-.53.53-.35,1.01-.77,1.45-1.24l.83.77c-.75.98-1.63,1.78-2.66,2.39-1.02.61-2.32.92-3.89.92-2.05,0-3.57-.46-4.57-1.39s-1.66-2-1.98-3.22l-1.77-7.2c-.55-2.32-1.37-3.83-2.45-4.51-1.08-.69-2.55-1.03-4.4-1.03h-3.83v-.71Z"/>
      <path d="M295.15,178.34c-.16,1.3-.27,2.56-.32,3.78-.06,1.22-.09,2.16-.09,2.83,0,.71.02,1.39.06,2.04s.08,1.19.12,1.62h-1.36c-.35-3.34-1.14-5.66-2.36-6.96-1.22-1.3-3.07-1.95-5.54-1.95h-3.6c-1.18,0-2.09.1-2.74.29-.65.2-1.09.62-1.33,1.27-.24.65-.36,1.64-.36,2.98v24.07c0,1.3.12,2.28.36,2.95.23.67.68,1.1,1.33,1.3.65.2,1.56.29,2.74.29h3.72c1.89,0,3.44-.31,4.66-.94,1.22-.63,2.18-1.69,2.89-3.19.71-1.49,1.18-3.48,1.42-5.96h1.36c-.12,1.06-.18,2.48-.18,4.25,0,.71.03,1.73.09,3.07.06,1.34.17,2.71.32,4.13-1.93-.08-4.09-.13-6.49-.15-2.4-.02-4.54-.03-6.43-.03h-4.69c-1.95,0-4.01,0-6.19.03-2.18.02-4.26.07-6.22.15v-1.18c1.34-.08,2.34-.24,3.01-.47.67-.24,1.11-.71,1.33-1.42.21-.71.32-1.77.32-3.19v-23.36c0-1.45-.11-2.53-.32-3.22-.22-.69-.66-1.16-1.33-1.42s-1.67-.4-3.01-.44v-1.18c1.97.04,4.04.08,6.22.12,2.18.04,4.25.06,6.19.06h4.69c1.73,0,3.69,0,5.87-.03,2.18-.02,4.14-.07,5.87-.15ZM286.48,195.57v1.18h-10.62v-1.18h10.62ZM288.42,189.44c-.16,1.81-.23,3.19-.21,4.13.02.94.03,1.81.03,2.6s.02,1.65.06,2.6.14,2.32.29,4.13h-1.36c-.12-1.02-.34-2-.68-2.92-.34-.92-.87-1.69-1.59-2.3-.73-.61-1.78-.91-3.16-.91v-1.18c1.42,0,2.47-.35,3.16-1.06s1.18-1.54,1.47-2.51c.29-.96.5-1.82.62-2.57h1.36Z"/>
      <path d="M315.15,177.52c1.97,0,3.51.23,4.63.68,1.12.45,2.09.95,2.92,1.5.47.28.86.48,1.15.62.3.14.58.21.86.21.39,0,.68-.23.86-.68.18-.45.33-1.09.44-1.92h1.36c-.04.63-.09,1.38-.15,2.24-.06.87-.1,2.02-.12,3.45-.02,1.44-.03,3.31-.03,5.63h-1.36c-.16-1.89-.63-3.63-1.42-5.22-.79-1.59-1.88-2.88-3.28-3.86-1.4-.98-3.18-1.47-5.34-1.47-2.05,0-3.72.51-5.02,1.53-1.3,1.02-1.95,2.32-1.95,3.89,0,1.42.42,2.62,1.27,3.6.84.98,1.99,1.89,3.42,2.71,1.44.83,3,1.73,4.69,2.71,2.01,1.06,3.83,2.15,5.46,3.28,1.63,1.12,2.94,2.36,3.92,3.72.98,1.36,1.47,2.98,1.47,4.87,0,2.2-.58,4.05-1.74,5.55-1.16,1.5-2.71,2.62-4.66,3.36-1.95.75-4.12,1.12-6.52,1.12-2.08,0-3.79-.25-5.1-.74-1.32-.49-2.43-.99-3.33-1.5-.47-.27-.87-.47-1.18-.59-.32-.12-.59-.18-.83-.18-.39,0-.68.22-.86.65-.18.43-.33,1.08-.44,1.95h-1.36c.08-.79.13-1.72.15-2.8.02-1.08.04-2.48.06-4.19s.03-3.87.03-6.46h1.36c.16,2.32.63,4.45,1.42,6.37.79,1.93,1.97,3.45,3.54,4.57s3.62,1.68,6.14,1.68c1.14,0,2.25-.21,3.33-.62,1.08-.41,1.97-1.08,2.66-2.01.69-.92,1.03-2.13,1.03-3.63,0-1.3-.37-2.43-1.12-3.39-.75-.96-1.79-1.87-3.13-2.71-1.34-.85-2.91-1.76-4.72-2.74-1.85-.98-3.56-2.03-5.13-3.13s-2.85-2.35-3.83-3.75c-.98-1.4-1.47-3.06-1.47-4.99,0-2.08.55-3.81,1.65-5.19,1.1-1.38,2.56-2.41,4.37-3.1s3.78-1.03,5.9-1.03Z"/>
      <path d="M347.54,177.52c1.97,0,3.51.23,4.63.68,1.12.45,2.09.95,2.92,1.5.47.28.86.48,1.15.62.3.14.58.21.86.21.39,0,.68-.23.86-.68.18-.45.33-1.09.44-1.92h1.36c-.04.63-.09,1.38-.15,2.24-.06.87-.1,2.02-.12,3.45-.02,1.44-.03,3.31-.03,5.63h-1.36c-.16-1.89-.63-3.63-1.42-5.22-.79-1.59-1.88-2.88-3.28-3.86-1.4-.98-3.18-1.47-5.34-1.47-2.05,0-3.72.51-5.02,1.53-1.3,1.02-1.95,2.32-1.95,3.89,0,1.42.42,2.62,1.27,3.6.84.98,1.99,1.89,3.42,2.71,1.44.83,3,1.73,4.69,2.71,2.01,1.06,3.83,2.15,5.46,3.28,1.63,1.12,2.94,2.36,3.92,3.72.98,1.36,1.47,2.98,1.47,4.87,0,2.2-.58,4.05-1.74,5.55-1.16,1.5-2.71,2.62-4.66,3.36-1.95.75-4.12,1.12-6.52,1.12-2.08,0-3.79-.25-5.1-.74-1.32-.49-2.43-.99-3.33-1.5-.47-.27-.87-.47-1.18-.59-.32-.12-.59-.18-.83-.18-.39,0-.68.22-.86.65-.18.43-.33,1.08-.44,1.95h-1.36c.08-.79.13-1.72.15-2.8.02-1.08.04-2.48.06-4.19s.03-3.87.03-6.46h1.36c.16,2.32.63,4.45,1.42,6.37.79,1.93,1.97,3.45,3.54,4.57s3.62,1.68,6.14,1.68c1.14,0,2.25-.21,3.33-.62,1.08-.41,1.97-1.08,2.66-2.01.69-.92,1.03-2.13,1.03-3.63,0-1.3-.37-2.43-1.12-3.39-.75-.96-1.79-1.87-3.13-2.71-1.34-.85-2.91-1.76-4.72-2.74-1.85-.98-3.56-2.03-5.13-3.13s-2.85-2.35-3.83-3.75c-.98-1.4-1.47-3.06-1.47-4.99,0-2.08.55-3.81,1.65-5.19,1.1-1.38,2.56-2.41,4.37-3.1s3.78-1.03,5.9-1.03Z"/>
    </g>
  </g>
  <g id="Tree">
    <g>
      <path d="M108.21,167.15c-.63.99-3.74,2.67-5.03,3.35-2.11,1.1-5.4.83-5.26,2.62-.3-.02-.38.34,0,.24-1.33,1.06-4.57,2.65-5.62,4.02-1.14,1.49-2,3.02-3.34,4.37-3.35,3.38-5.26,4.22-9.99,5.6,2.16-3.52,7.84-3.02,9.44-7.07.43-1.08.84-2.07,1.08-3.22-6.25,2.01-12.71.63-16.25,6.99-.44.8-1.77.78-2.5.66,1.85-2.33,3.29-4.65,6.15-6.06-7.73-2.2-14.19.94-14.04.93l-1.83.13c-.09,0-1.5,2.06-1.38,2.59-.58-1.29.42-2.12,1.04-3.16-1.09-.07-2.04.15-3.12.38-.21-.05-.07-.19.07-.36,5.95-2.54,8.5-2.32,14.84-2.01,3.97.2,7.82.28,11.77-.1,6.6-.64,8.02-3.53,13.43-6.05,3.39-1.58,6.79-3.06,10.55-3.86Z"/>
      <path d="M130.11,147.92c-.47.11-.53.49-.53.75-.17.04-.31.19-.48.24-.15-.27-.28-.1-.37,0-.19.21-.31.33-.16.47-.73.3-2.45,3.97-2.75,4.81-.11.29.3.55-.07.72.05.27-.14.6.12.97.5-1.63,1.03-3.31,2.12-4.75.41-.53,1.04-.94,1.15-1.73.21-.11.46-.28.45-.74.33-.08.42-.28.53-.75.32-.08.42-.45.7-.64,1.3-.82,1.43-2.82,2.69-4.28-.19.81-.06,1.58,0,2.45.2,2.92-1.9,5.88-3.36,8.35-1.14,1.94-3.31,7.03-1.57,8.82-.11-1.81-.04-2.33.46-3.91,1.5-4.71,3.75-6,5.01-11.67.11-.48.14-1.03.27-1.45.19-.6.42-1.02.31-1.76-.88-5.96,1.06-10.14,5.43-13.97.85-.75,1.73-1.24,2.48-2.02l-1.61.57c.57-.57,1.04-1.35,1.83-1.84l3.97-2.5c.76-.48,1.37-1.16,2.31-1.3-.57.51-1.28.77-1.55,1.69,1.78-.76,3.6-1.56,4.91-2.9.23.09.34-.27.05-.23.27-.25.63-.41,1.04-.61,5.41-2.67,10.22-6.15,13.43-11.2-.11.69-.57,1.19-.33,1.94.4-.08.48-1.19,1.07-2.64.07-.17-.08-.4,0-.48.31-.31.96-.21,1.05-.63.03-.16-.19-.33-.5-.54.61-1.38.96-2.95,1.7-4.34.23-.43.51-.78.72-1.26,1.15-2.6,3.68-4.02,2.23-6.69-.15,2.62.04,3.58-2.02,5.31-.08.41-.24.14-.15-.18.94-3.52,1.02-7,.62-10.62-.3-2.78.05-5.48,1.15-7.98l2.83-6.45-.49,4.74c-.46,4.49-4.38,9.78-1.41,14.15-.13.26-.37.54-.08.74.1-.03.17-.25.32-.27.17-.02.32.1.61.23,2.19-5.4,2.65-11.87,6.68-16.41.3.03.34-.27,0-.28.66-1.4,1.18-2.8,1.17-4.59,1.44.26,1.55,2.46.77,3.16-.35.31-.78.46-.95.96.43-.14.51-.51.97-.73.13.21.09.38.16.65,2.04-1.93,4.39-2.46,6.97-4.03,1.71-1.04,4.15-3.3,4.4-5.33,2.02,1.14-1.27,3.97-1.94,5.26,4.11-.95,9.58-3.12,11.8-7.07,1.05.92-.72,2.79-1.25,3.55l3.4-1.11c1.11-.36,3.73-.94,4.22.6-6.18.68-11.96,2.48-17.43,5.3-1.19.61-2.35,1.04-3.56,1.56-5.99,2.57-10.38,6.26-12.02,12.89,2.12-.04,6.47-5.69,7.85-7.43.33-.42,1.21-.12,1.6.04-.25,1.11-.97,1.87-1.79,2.61-5,4.54-9.8,9.35-11.28,16.3l8.98-5.85c3.05-1.99,5.24-4.79,7.08-7.85.74-1.23,2.09-1.76,3.15-2.6.48-.38.42-1.2.58-1.8.15-.56.86-1.39,1.48-.85.52.46.47,1.94,0,2.53-1.63,2.06-3.64,3.44-5.47,5.33,1.47-.37,2.56-1.24,3.86-1.9,5.35-2.71,5.99-.93,7.41-2.17,1.54-1.34,2.15-.07,4.89-3.01,1.61-1.73,3.23-4.34,5.9-3.25-.34.35-.87.44-1.02.88-.23.69.29,1.24.45,2.02-3.21-1.73-5,2.18-7.59,3.57,2.76.8,5.65,1.44,7.14,3.82-.4,0-.72-.22-1.1-.42-5.49-2.75-12.61-3.36-17.75.54l-9.65,7.33c-3.56,2.71-4.78,3.1-8.28,5.39-1.57,1.03-2.75,2.33-3.93,3.77-.38.47-1.23.44-1.35,1.16,2.09-.07,1.59-1.22,3.77-1.13.01.34-.43.18-.53.48.53.33.86-.41,1.33-.41,5.44-.05,8.61-2.2,12.87-5.34,1.65-1.22,3.53-2,5.61-1.51-.84.71-1.63,1.2-2.5,1.67-2.69,1.43-5.3,2.83-7.72,4.74l6.99.69c5.9.59,8.76,2.01,14.61-1.34,1.73-.99,3.15-2.28,4.76-3.43.96-.68,1.85-1.26,2.63-2.18.54-.63,1.2-1.2,2.03-1.41-.28,1.16-2.23,2.47-2.97,3.72,3.28,1.02,9.13-2.83,11.89-.46-.93.38-1.89.45-2.89.5-1.44.07-2.78.3-4.19.53-4.51.75-8.98,1.4-12.14,5.09,5.93,1.15,11.86,3.03,14.82,8.46-5.96-4.79-11.71-7.3-19.53-7.37-1.54-.01-6.99-1.53-9.53-.97l4.95,2.55c.9.46,1.89.95,2.58,1.71l3.53,3.89c2.07,2.28,4.62,3.72,7.29,5.21,1.5.83,2.24,2.59,2.88,4.11-2.05-.57-3.95-5.01-6.32-4.84-.16.93.19,1.75.67,2.51l1.76,2.8c.24.37.36.74.31,1.09-4.46-5.37-5.17-9.99-11.22-14.18l-2.56-1.78c-5.79-4-15.93-4.33-21.37-.54-1.66,1.16-2.9,2.72-4.13,4.3l-3.03,3.91c-1.34,1.73-3.01,2.93-4.92,3.95l-7.54,4.02c-3.04,1.62-6,3.22-8.6,5.52-2.53,2.24-4.01,5.4-4.74,8.67-.65,2.92-.49,5.8-.29,8.74.03.48.46.91.03,1.5-.58-3.55-2.16-6.81-1.67-10.69.59-4.74,3.02-7.81,6.71-10.61.74-.56,1.4-1.14,2.23-1.59.71-.39,1.34-.89,1.85-1.57.04-.2-.05-.29-.19-.18l-3.49,2.3c-.64.42-1.06,1.03-1.66,1.46-3.73,2.7-5.76,6.64-5.82,11.26-.04,2.53-.03,4.94.79,7.36-.51-.1-.49-.52-.82-.8-.19,1.05-.75,1.71-.27,2.2,1.19,1.19-.44,2.06.05,3.74.07.26.26.27.36.02-.06-.35-.22-.7.25-.8.31,2.74-1.95,6.6-3.45,8.87-.99,1.5-1.17,3.2-1.47,4.87-.61-2.41-.69-1.1-.04-3.16.13.2.16.29.18.48.09.04.18-.05.18-.22-.21-.73-.28-.49.04-1.26-.22-.32-.32-.07-.33.24-.29.37-.32.82-.46,1.29-.18.41-.42.57-.48.04-.1-1.35.15-2.6.8-3.67.57-.94.91-1.92,1.41-2.89.24-.47,2.84-4.5,2-4.59l-3,5.59c-.99,1.86-1.89,3.67-1.73,5.79.76,1.14.7,2.85,1.65,4.28l-.13-1.42c.14-.09.23.02.2.19.11,1.21.75,2.17,1.58,2.98.08.2.18.48.32.28-2.02-3.25-1.43-7.63.98-10.17,1.05-1.1,2.17-1.98,2.38-3.74.07-.63-.4.39-.65.62-.15.16-.2-.04-.21-.25.81-3.28.68-4.06.46-7.53,2.31,4.41,1.26,7-.8,11.1-1.64,3.26-3.93,7.57-.23,10.32.35.26.7.28,1.09.04-.5-.44-1.1-.85-1.57-1.49-1.67-2.23-.32-5.83.79-8.13l1.72-3.54c.96-1.98,1.1-4.12.53-6.4.29-.3.39-.06.35.29l.82,3.46c-.06-.25.04,2.73.17,3.13.47-.51.57-1.2.26-1.85-.17-.26.04-.54.2-.26.15.81.72,1.3.76,1.92-.14.32-.2.63-.06,1.13.18.29.29,0,.22-.32-.04-.29.02-.48.27-.34,1.23,2.03,2.94,3.46,4.97,4.45,1.86.9,3.8.76,5.81,1.07.89.14,3.02,1.56,7,.93l-2.81-.45-1.58-.35c-.14-.03-.26-.03-.45,0-.26-.08-.25-.26,0-.33.94.23,1.76.14,2.68.2l14.68.98c1.16.08,2.88-.2,3.77.33,1.02.6,1.44.18,2.35.21,4.31.11,8.52,1.4,12.78,1.92.04.19-.05.26-.21.26h-.48c-.27-.02-.46.03-.77-.04-1.08.34,2.47.69,2.44.73l.43-.44,11.72,2.65,2.98.46c.15.02.3,0,.51-.05.25.09.25.28,0,.27-.96.11-1.78-.09-2.67-.13-.74-.03-1.46.15-2.18-.08-.32-.1-.35.28-.46.3-1.5.41-3.08.22-4.61-.25-4.08-1.26-8.23-1.96-12.74-2.2,3.22,2.2,6.07,4.86,8.47,7.96.41.53-1.23.59-1.51.25-1.48-1.84-2.95-3.56-4.75-5.09-4.05-3.44-8.55-5.09-13.69-3.76,3.26,1.29,4.3,4.56,5.38,7.52.21.3.05.3-.2.02-2.98-2.91-4.39-7.44-9.19-7.76l-4.62-.31c-1.76-.12-3.47-.26-5.22.02-2.6.41-7.38.04-10.29-.89.81,1.34,2.01,2.14,3.28,2.93.83.52,1.8.65,2.72.93,5.21,1.63,11.32-1.18,13.6,3.66.11.88-1.57-.95-2.34-1.13,1.53,2.38,5.11,4.71,8.19,5.58,3.71,1.05,5.43-.53,5.86.5.17.4.25,1.04-.24,1.19-.43.13-.87-.22-1.26-.04-.27.63.77.28.95.61.32.56-.66,1.12.15,1.2,3.07.3,5.86,1.96,7.36,4.79-1.93-1.2-3.67-2.37-5.7-3.32l-6.57-3.09c-7.2-3.39-11.24-9.35-18.47-8.68-.5-.09-.48.32,0,.32,2.56.07,5.99,1.3,5.68,4.16-.74-.07-1.1-.53-1.64-.83-6.36-3.6-14.76-6.5-22.16-6.91l1.34,1.75c-1.4-.81-2.48-2.17-2.67-3.96-.13-1.24.26-3.29.73-4.21l2.06-4.05c.02-.27-.23-.27-.4-.04-1.49,2.92-3.29,5.75-2.69,9.16.37,2.09,2.05,3.31,3.86,4.06,1.51.63,4.78,3.61,7.73,4.97,5.31,2.45,8.86.72,9.44,1,.15.07.21.33.1.55-.34.65-1.17.56-1.89.3-.46-.02-.38.23.02.3,2.02,1.13,3.55,2.64,4.98,4.39.69.85,1.67,1.65,2.8,1.8,5.42.72,13.52-1.7,17.2,4.82,1.75,3.09,4.76,2.78,4.33,4.26-.16.54-1.22.26-1.56-.03-1.42-1.21-3.39-2-3.84-2.9-1.79-3.66-5.52-5.17-9.41-4.87-2.73.21-5.34.28-7.91-.02.8.48,1.41.92,2.1,1.42,4.08,2.93,4.59,6.09,3.8,5.3l-8.5-8.52c-.68-.68-1.2-1.58-2.07-2.01-3.34-1.64-10.65-2.86-12.58-3.8-1.09-.53-1.75-.68-2.91-.88-3.24-.56-9.96-4.01-11-7.5-.07-.27-.14-.55-.31-.28.05,2.35,2.85,5.31,4.62,6.34l4.67,2.72c.06.17.24.21.18.22l-.6.06c-1.78.17-4.43-2.1-5.91-2.98-.2,1.59.53,3.01,1.8,3.86,4.64,3.11,6.82.77,9.61,4.01-3.48-1.9-5.86-.07-9.57-1.29,1.82,4.02,7.23,3.28,10.28,6.16,1.65,1.55.32,2.1,1.25,2.15l.46.02c1.22.06,2.34.07,3.52.3,2.3.45,4.74,2.23,5.08,4.74-.09.25-.27.13-.43-.02-1.31-1.26-4.04-3.92-6-3.62-.83.13-1.32.93-1.53,1.51-.78,2.24,2.66,4.6,4.51,5.6,1.61.88,3.24,1.84,4.16,3.48.39.7-.83,1.88-1.01,1.88-.15,0-.23-.31-.29-.48l-.42-1.34c-.16-.52-.47-.93-.94-1.25s-.29.56-.65.66c-3.73-2.19-5.7-5.31-7.78-8.95-3.46-6.04-2.22-5.66-8.14-7.28-3.67-1.01-3.67-4.22-4.11-4.25-.1,0-.2.04-.33.15-2.26,1.84-2.89,5.41-.46,7.59,4.75,4.27,10.42,7.01,12.96,12.91.62,1.44-2.3-.01-3.43-2.01l-2.02-3.55c-1.06-1.87-2.17-2.53-4.41-2.89,1.82,2.63,2.29,5.92,1.29,9.13-1.52,4.9-4.09,4.38-3.43,7.78l.62,3.19c.04.18-.05.39-.13.44-.07.05-.21,0-.38-.1-2.33-1.5-1.73-5.87-.53-8.18.56-1.09,2.97-3.25,2.53-3.77-.12-.14-2.77-.37-4.26,1.57-.65.85-.93,1.82-1.23,2.84-.13.44-1.4.48-1.38,0,.11-1.91,1.12-3.43,2.73-4.36l3.21-1.84c1.23-.71,1.65-2.09,1.14-3.41-1.89-4.85-11.29-9.7-5.39-15.41.01-3.34-2.7-5.72-3.94-8.89-.06-.15-.09-.33-.16-.4-.25-.24-2.1,1.36-2.26,3.78-.04.62.68,8.53.63,8.32l.86,3.42c-2.13.4-1.79-2.12-2.38-2.36-.26-.11-1.87,2.09-2.24,2.78-1.21,2.28.64,3.78,1.16,5.22,1.36,3.81.2,4.48,1.42,6.71.06.1-.01.37-.02.46-.04.34-1.2-.11-1.56-.3-1.08-.56-1.25.65-1.99,1.39-1.97,1.97-2.36,4.38-4.31,3.65.46-1.05,1.13-1.9,1.8-2.79.85-1.13,1.6-2.24,2.37-3.42,1.5-2.28,1.6-5.17-.09-7.41-.82,1.06-2.09,3.63-3.92,2.51,1.95-1.8,3.79-7.3,4.57-8.21,1.25-1.46,2.3-2.82,2.32-4.92l.06-4.78c0-.15.03-.27.02-.39,0-.27,0-.5-.16-.31-1.45,2.26-7.41,5.31-8.26,6.75l-.81,1.38c-.58.99-5.96,4.49-7.36,5.58-2.48,1.94-4.95,5.19-4.32,8.54.38,2.02-.4,4.2-.69,6.37-.21,1.57.05,2.18.47,3.47.1.3-1.22.23-1.55-.17-.71-.86-.85-2.03-.76-3.15.23-3,2-3.24.94-5.44-.38-.78-.49-1.49-.42-2.55-2.79.6-4.97,2.92-7.41,4.38-3.42,2.06-4.24,1.03-7.07,1.59-.12.02-.25,0-.39-.02-.08-.02-.11-.11.04-.33,2.64-2.85,4.19.12,7.18-2.2,3.18-2.47,4.97-4.71,8.98-5.6.45-.73.68-1.45.85-2.31-2.41-.07-4.57.59-6.33,2.06-1.18.99-2.72.78-2.2.27.44-.43.55-1.32,1.16-1.55l5.93-2.19c3.53-1.31,8.64-4.26,10.99-7.45-1.55-1.12-3.21.33-4.09,1.36-.55.64-1.25.89-1.47.52-.6-.97.74-2.75,1.85-3l3.14-.73c3.75-.87,11.54-10.21,12.02-10.51.18-.11.33-.15.39-.25.14-.23-.23-.55-.41-.3-.22.32-.33.61-.72.76-5.23,2.05-12.36,1.57-14.67,6.66-2.08,4.58-6.41,3.83-10.77,5.76-4.03,1.78-2.18,5.87-5.01,8.97-.98,1.07.18-3.72-.07-3.98-2.29,2.13-4.81,3.82-7.53,5.49-3.69,2.26-7.81,3.58-12.2,3.56-.17-.06-.39-.08-.3-.16,2.73-2.06,6.97-1.66,10.3-3,.59-.24.08-.48-.35-.42-1.82-.05-3.42.78-5.21.06-.25-.2.07-.3.36-.23,9.18-.29,12.77-6.32,18.94-11.85-.35-.31-.79-.31-1.16-.74,2.96-1.15,8.55.86,10.4-3.19.48-1.04,1.17-1.88,1.97-2.56-.71-.55-1.99,1.04-3.31.39-.34-.19-.11-.35.21-.36l5.15-2.08c.17.34-.13.59-.25.92.73-.54,1.32-1.21,2.19-1.59,2.34-1.02,3.37-.62,5.23-1.4.04-.2.13-.33.34-.18.62-.73,4.04-1.08,3.98-2.12-.36.29-.61.31-.28-.04.24-.42.5-.67.49-1.12l-7.57,1.07c-2.43.34-4.69,1.01-6.98,1.84-2.01.73-4.04,1.09-6.08,1.66-.56.16-.99.58-1.65.68.15-.06.21-.13,0-.24.58-.51,1.21-1.02,2.09-1.2,5.12-1.07,6.14-3.61,10.7-4.65,1.09-.25,2.1-.55,3.29-.66-.54-.41-1.13-.07-1.76.02l-2.56.36c-.3.04-.54.04-.73-.05.1-.15.4-.27.66-.33l9.53-2.39c1.43-.36,2.53-.98,3.68-1.84-2.35,2.62-4.35,2.76-7.42,3.78,2.55-.06,4.63-1.37,6.7-2.53l-.89,1.32c1.92-.77,2.33-3.21,3.73-4.75.2,2.02.07,3.53,1.71,4.8-.84-1.73-1.31-3.59-.95-5.53.08-.45-.17-.45-.32-.68-.75-1.14.02-3.7.35-3.86.07-.32-.1-.64-.21-.32-.37.53-.48.95-.63,1.55-.41-1.05-.33-2.17-.45-3.34-.76-7.3,2.11-10.28,1.96-17.09-.1-4.96-4.28-10.81-7.23-14.58-2.11-2.7-4.45-4.97-7.47-6.67-8.65-4.87-19.8-4.51-27.49,1.79-2.54,2.08-4.98,9.87-6.63,12.8-.37-1.13.05-2.05-.13-3.25-1.75,1.6-1.95,5.17-2.78,6.88-.21.43-1.02.29-1.36.11,1.54-10.04,3.06-6.74,6.72-13.01l2.55-4.37c-2.28.28-3.64-1.2-4.93-1.2-3.52-.02-6.29,2.35-7.99,5.23-1.4,2.38-2.97.11-6.46,1.26l-2.89.95c-.97.32-1.92.52-3.03.34.98-1.32,2.47-2.02,4.12-2.16l4.55-.4c3.76-.33,4.91-4.34,6.22-4.84l2.07-.79c-4.03-.83-7.44-2.72-10.22-5.66-2-2.12-4.97-2.64-7.63-1.66-3.62,1.34-7.69,4.31-11.31,2.24,5.6-.42,11.57-5.58,17.04-2.78.87.45,1.48,1.08,2.42,1.5-.28-1.11-.44-2.05-.41-3.15.2-6.35-4.87-10.9-7-9.08l-1.8,1.54c-.8.68-1.73.98-2.82.87-.85-.08-1.64-.52-1.71-1.5,2.38.2,4.59-.61,5.99-2.68-1.85-.56-3.48-1.3-4.52-2.8,5.75,1.22,10.68,4.97,13.07,10.38.99,2.25-1.06,7.44,4.68,10.32,2.07,1.04,4.41,1,6.56,1.67.51.16,3.3,3.06,7.84-.13,3.8-2.67,6.08-3.98,11.04-4.46-.87.42-1.89.33-2.62,1.17,2.46-.81,4.67-.82,7.26-.73-.61-.83-3.86-.25-4.16-.64,5.22-.46,10.06.13,14.67,1.94-1.13.09-3.4-.51-4.59-.27l5.4,1.02c1.88.35,1.93,1.26,2.74.85-.41.73.92,1.13.76,2.06l-1.95-.81,3.82,2.79-.66-1.16,2.64,1.11-4.34-3.75c3.05,1.55,5.52,3.79,7.72,6.4,1.89,2.25,3.97,4.13,6.12,6.11.23,1.1.29,2.34.63,3.42.44,1.38.49,2.76.71,4.17.87,5.52-1.08,10.5-3.93,15.09-.74,1.2-.43,4.66-.36,6.33.48-1.88,1.3-3.53,2.51-5.04-.86.66-1.38,1.53-2.05,2.38-.12-.84.36-1.32.39-1.92.18-.12.26-.32.04-.29.07-.69.32-1.18.59-1.72l2.42-4.78.91-4.15c.35-1.6.14-4.93.17-5.16l.14-1.14c.11-.88-.2-1.72-.19-2.7-.3.07-.27.32-.45.56-.09.09-.12-.12-.19-.29l-.52-3.81c-.11-.77-.64-1.38-.79-2.07-.48-2.32-.9-4.52-1.82-6.73-1.55-3.71-3.59-7.03-6.13-10.14-1.03-1.26-1.92-2.51-3.1-3.61-3.79-3.53-7.67-1.48-13.11-2.26-2.11-.3-3.39-1.57-4.64-3.09-1.65-2-4.76-1.79-6.62-.24-.82.69-1.44,1.31-1.97,2.19-1.44,2.37-3.81,1.28-5.72,1.93-2.67.9-.53,3.44-2.08,3.56-.52.04-.91-.14-1.02-.8-.65-4.11,1.66-1.32,6.54-5.05,1.37-1.05,2.66-2.03,4-3.23-4.67.27-11.51-1.14-10.85-6.91.43-.16.93-.13,1.33.04.16,2.14,1.27,4.24,3.33,5.08,2.7,1.1,7.6.55,10.63,1.19,1.27.27,3.12.62,3.88,1.75,1.13,1.68,2.41,2.84,4.62,2.9,1.86.04,3.74-.15,5.81-.51-.94-1.32-1.71-2.53-2.28-4.01l-1.8-4.66c-1.22-3.16-3.38-6.02-6.94-6.5l-3.41-.47c-3.24-.44-4.77-2.65-5.82-2.66-2.51-.03-5.92,2.16-10.57,1.62-2.33-.28-4.52-.88-6.64-1.83l-6.35-2.82c-1.14-.51-2.02,1.36-3.12.53,3.05-2.94,7.62.27,10.6,1.85,6.07,3.23,7.9,1.03,14.11-.46-.86-2.55.86-6.45-1.53-6.84-9.53-1.57-13.25-8.78-19.76-14.56-.11-.1-.24-.25-.19-.29.07-.05.25-.1.39-.09,6.98.54,6.42,11.36,15,12.2-.29-3.2-.29-6.21-.41-9.39s-.26-6.04.11-9.1c.23-1.93-1.14-2.48-1.8-4.06,2.05,1,3.69,3.12,3.34,5.64-.44,3.17-1.13,11.44-.45,14.3.51,2.15,1.94,3.83,4.1,4.38l1.9.48c.45.83.49,1.77.49,2.76v2.42c0,1.01.5,1.81,1.33,2.36,3.25,2.13,4.99,2.72,8.86,3.25-4.11-5,1.98-13.41-.65-18.41-1.25-2.37-2.86-2.29-2.15-5.06.37-1.45-.18-2.96-.4-4.4-.36-2.35-1.15-2.15-2.55-3.6,2.22-.16,2.88,1.61,3.74,3.26,3.64-6.98-.48-12.71-6.71-15.75,3.77-.14,7.21,3.83,8.8,6.73.44-.7.42-1.43.95-1.88.35-.29,2.93-2.5,3.3-1.77-3.16,2.06-4.24,7.44-4.92,10.96-.54,2.79-1.01,5.58-.58,8.43.23,1.49,2.66,2.53,2.66,5.8,0,2.51-.34,4.92-.89,7.37-.44,1.96-1.27,6.99,1.25,7.74.85.26,3.73,2.77,3.82,2.92l2.67,4.75-1.34-3.81c.85.82,1.41,1.61,1.9,2.56l2.38,4.59c.29.57.49.97.83,1.86.4.85-2.14-2.98-1.88-1.51,1.44,2.41,2.46,3.23,4.35,5.23.12.11.35.08.32-.06-.17-.53-.4-.91-.98-.99-.07-.09-.05-.26.06-.36l5.54,3.39c1.42.87,2.67,1.86,3.44,3.18-.75-.25-1.2-.7-1.91-.56,1.5.78,2.7,1.81,3.7,3.25.19-.17.14-.39.28-.67l1.57,1.59-3.21-4.13c-.36-.47-1.07-.74-1.51-1.16-1.99-1.92-4.38-3.05-6.56-4.66.75.58,1.75.41,2.55.78,4.32,1.96,7.61,5.43,9.91,9.5l-1.12-6.53c-.7-4.1-1.37-11.87-3.84-15.18-1.26-1.69-3.1-2.79-4.28-4.56-1.64-2.45-3.29-.38-5.49-3.15-.99-1.25-1.53-2.93-.83-4.41.39-.07,1.23.14,1.34.48.03,2.1,1.03,3.92,2.96,4.81.38.18,1.15.36,1.47-.03,1.36-1.64,1.35-3.85.36-5.71-2.68-5.02-7-4.54-7.87-8.67-.22-1.06.34-2.12,1.38-2.21.15,1-.05,1.98.35,2.89.93,2.15,3.73,3.63,4.97,5.11,1.47,1.75,2.39,3.83,3.06,6.02,1.41,4.63-.09,5.97,2.59,8l3.04,2.31,1.16-6.38c.46-2.54.58-5.04.76-7.61.28-3.89-1.12-7.36-3.92-10-2.43-2.3-5.38-3.26-8.51-4.31-2.84-.95-7.06-5.31-8.41-8.01l.8.83c2.11,2.19,1.3,1.72,3.8,3.43,4.59,3.13,7.08,4.05,11.9,6.52-.44-2.15-3.3-5.33-3.84-6.64-.7-1.7-.9-3.53-1.44-5.31-1.72-5.7-3.52-9.79-9.16-12.39,2.9-.37,4,2.63,6.33,3.57.45-2.56-3.74-6.45-1.77-9.11.8,1.37,1.18,2.83,1.61,4.35l1.56,5.61c.52,1.89,1.11,3.69,2.1,5.42,3.96-4.75,2.07-13.06,2.74-18.38.14-1.12.73-2.08,1.37-2.94.72-.98-.54-1.56.05-2.15.4-.4,1.22-.31,1.55.14.98,1.32-.64,3.19-.91,4.15-.64,2.28-.93,4.59-1.23,6.95l-.71,5.77c-.39,3.2-1.04,6.21-1.95,9.3-.49,1.67,2.27,7.8,3.94,9.35.24-1.94.16-3.66.74-5.4,2.57-7.68,5.39-16.17,2.25-24.11.58.11.94.54,1.51.74,1.18.41,1.66-1.27,1.78-.57l-.37,7.8c-.12,2.51-.51,4.92-.96,7.39-.5,2.73-1.52,5.07-2.47,7.67-.86,2.37-.83,5.3.12,7.67,2.16,5.42,3.34,10.9,3.06,16.69,4.22-4.36,8.6-11.11,3.81-16.45,1.1-.57,1.6.63,2.18,1.33.58-1.22-.99-3.36-.56-5.11,2.84.66,2.52,4.6,2.46,6.84-.07,2.64-.47,5.19-1.59,7.57-1.55,3.29-2.64,1.77-4.49,5.69-.83,1.77-1.35,3.48-1.8,5.4-1.02,4.35-1.2,8.71-.25,13.11.7,3.21.95,4.85,2.59,7.89l2.8-4.38c1.79-2.81,3.08-4.64,3.37-8.18.34-4.27,1.94-8.18,4.49-11.57,1.83-2.43,4.67-5.67,5.68-8.47,1.06-2.96-2.54-7.51-3.57-11.01-1.27-4.3-1.78-8.61-3.46-12.86-.64-1.63-1.75-2.84-3.16-3.8-1.01-.68-1.83-1.54-2.94-2.16-.46-.02-.45-.35-.01-.26l3.3,1.31c1.17.47.83-1.62,1.82-2.23-.36,1.88.02,3.59,1.03,5.14.74,1.14.92,2.45,1.92,3.6,1.49-4.5,2.28-8.12.97-12.65-.26-.89-.42-1.73-.8-2.56-1.55-3.34-3.3-4.83-5.94-7.04.8.09,3.14,2.2,3.67,2.8l2.37,2.67c.33.37.57.72,1.15.81-.07-.81.31-1.23.65-1.76,1.3-2.05,2.6-5.34,5.37-5.33-4.03,2.18-5.35,7.03-4.95,11l.35,3.49c.13,1.34-.07,2.48-.2,3.89,2.65-2.39,6.09-4.06,8.26-6.57,3.14-3.64-.02-7.14,1.14-6.5,2.52,1.37-.78,6.07,2.74,6.44-1.46.75-2.87,1.63-4.4,2.59l-3.7,2.32c-2.79,1.75-4.53,4.85-5.5,7.93s.65,10.31,2.82,13.14c.62-.72.58-1.49.91-2.18.85-1.75,2.02-3.2,3.15-4.76,1.61-2.23,2.81-4.53,3.53-7.17.74.48-.26,2.54.03,3.14,2.72-.3,3.66-8.23,6.07-5.27-3.1,4.49-7.28,7.55-10.33,12.12-2.36,3.52-2.22,7.59-.23,11.19.54.98-.49,2.45-1.14,3.08-4.61,4.43-7.14,7.98-7.63,14.74,4.44-2.91,9.56-6.61,8.87-12.69,1.42.93,1.12,2.83,1.4,4.16.59-.27.89-.83,1.13-1.45l.81-2.06c.35-.89.99-3.53,1.89-3.29.36.1.49.41.46.82-.61,9.14-12.06,10.35-14.51,17.66-.65,1.95.66,3.57-1.16,6.05-9.88,13.48-6.18,23.97-6.26,24.31l-1.46,6.43c-.53,2.33-.51,4.68-.43,6.98-.87-1.2-1-2.35-.95-3.6l-.39.71c-.38-.23-.37-.43-.7-.76-.37.64.7,1.38.66,2.68-.14,4.18-.01,3.59-.94,7.73-.17.74-.51,1.34-.95,1.93l-2.43,3.27c.58-.23.74-.79,1.09-1.27.76-1.02,1.66-1.89,2.24-3.02.78-1.53,1.34-3.02,1.27-4.92.77.53.74,1.24,1,2.07,1.04-1.4-1.71-1.93-.96-6.04.72,1.07.8,2.29,1.27,3.65l.53-6.51c.21-2.58-.02-5.53,1.42-7.49l.62-.84c.11-.15.82-3.14,3.96-5.32-2.76,3.52-4.47,7.64-5.08,12.15l-.62,4.62-.57,6.63-.46,1.53-.38-.5c-.85,2.18-2.34,3.67-3.89,5.23,1.06-.58,1.63-1.64,2.57-2.43.3-.25.53-.42.7-.87-.15,1.21-1.21,2.07-1.54,3.56ZM133.04,104.97l4.42-6.26c2.07-2.93,4.04-7.6,2.78-11.02l-.14,2.91c-.24,4.03-2.65,6.67-4.81,9.83-.92,1.49-1.95,2.83-2.26,4.54ZM109.18,90.95c0-.07-.05-.12-.12-.12s-.12.05-.12.12.05.12.12.12.12-.05.12-.12ZM129.05,97.53c-.07-.56-.38-.7-.59-.87-.2.34-.05.52.05.78.06.15.45.41.54.09ZM130.06,100.81l-.32-1.11c-.27.11-.17.54-.15.81.01.17.27.46.47.31ZM120.04,103.19l-2.22-1.03c.52.66,1.29.86,2.01,1.37.31.12.49-.05.21-.34ZM133.42,107.99c0-.07-.05-.12-.12-.12s-.12.05-.12.12.05.12.12.12.12-.05.12-.12ZM100.78,108.95c0-.07-.05-.12-.12-.12s-.12.05-.12.12.05.12.12.12.12-.05.12-.12ZM132.08,117.23l.26-1.78.61-3.92c.13-.82.47-1.59.09-2.48l-.74,3.24c.31-1.37-.63,6.07-.22,4.94ZM92.62,109.67c0-.07-.05-.12-.12-.12s-.12.05-.12.12.05.12.12.12.12-.05.12-.12ZM105.5,109.67c0-.08-.07-.15-.15-.15s-.15.07-.15.15.07.15.15.15.15-.07.15-.15ZM92.14,109.91c0-.07-.05-.12-.12-.12s-.12.05-.12.12.05.12.12.12.12-.05.12-.12ZM131.83,114.11c.36-1.68.38-3.15-.23-4.11-.47,2.28-.14,2.24.23,4.11ZM128.53,111.48c.19-.44-.17-.92-.59-1.23-.08.53.18.86.59,1.23ZM130.26,110.66c.03.39.26.41.4.34.13-.07.19-.22.12-.36s-.27-.27-.52.02ZM112.77,112.9c-.29-.52-.76-.98-1.45-.87.53.26.92.53,1.45.87ZM165.83,112.57c.35.29.44,0,.6-.13s.23-.34-.02-.5c-.08.41-.2.45-.57.63ZM129.2,116.3c.34-.4.15-.95-.32-1.33-.02-.5-.31-.4-.27.08-.04.36.05.38.34.42.26.04.03.52.25.83ZM161.01,117.24c-1.1.3-1.92.87-2.89,1.39,1.11-.05,2.19-.37,2.89-1.39ZM127.4,131.97c.68.43.43,1.27,1.08,1.58-1.04-3.23-2.27-6.23-3.88-9.18-.71-1.3-2.88-4.4-3.86-5.24l-1.91-1.64c.48.86,1.29,1.33,1.94,2.1.19.51.64.79.96,1.2,2.59,3.3,4.63,6.98,5.67,11.19ZM157.76,120.7c.52-.23.99-.36,1.46-.72.98-.77,2.26-.71,2.52-1.54-.3.18-.58.18-.87.32l-7.05,3.5c-2.24,1.11-4.41,2.17-6.49,3.82,3.81-1.35,5.9-3.34,10.43-5.37ZM132.59,121.1c.18-.73.2-1.36-.02-1.96-.18.73-.2,1.36.02,1.96ZM128.97,122.14c.08-.51-.13-.89-.22-1.31-.17.46-.39,1,.22,1.31ZM125.98,125.36c.29-.08.2-.5.09-.59-.1-.08-.26-.26-.48-.15-.22.16,0,.86.39.75ZM130.12,124.9c-.19-.38-.38-.14-.29.25-.04.24-.04.42.11.49.14.06.29.01.36-.12.08-.14-.09-.26-.18-.61ZM127.66,128.53c-.3-.49-.48-.89-.91-1.24-.02.54.11,1.13.91,1.24ZM126.29,131.16l1.23,3.87c.59-.66-.58-3.35-1.23-3.87ZM126.12,141.8l-.82,3.7,1.45-3.31c1.49-3.41,2.22-3.33,1.78-8.42-.36,1.07,0,2.09-.14,3.15-.23,1.72-.81,3.29-1.79,4.8.14-1.05.7-2.03.47-3.14-.15,1.19-.7,2.15-.94,3.22ZM128.07,141.13c.79-1.21,1.55-4.18,1.15-5.19-.21,2.1-1.21,4.6-2.11,6.42-.36.73-.86,1.35-.85,2.42.51-.38,1.22-2.76,1.8-3.65ZM126.22,145.19c0-.07-.05-.12-.12-.12s-.12.05-.12.12.05.12.12.12.12-.05.12-.12ZM133.18,145.19c0-.07-.05-.12-.12-.12s-.12.05-.12.12.05.12.12.12.12-.05.12-.12ZM125.3,146.03c0-.08-.07-.15-.15-.15s-.15.07-.15.15.07.15.15.15.15-.07.15-.15ZM133.18,145.91c0-.07-.05-.12-.12-.12s-.12.05-.12.12.05.12.12.12.12-.05.12-.12ZM124.89,147.71c.21-.57.23-.84-.04-.98-.1.43-.15.72.04.98ZM132.5,147.71c0-.08-.07-.15-.15-.15s-.15.07-.15.15.07.15.15.15.15-.07.15-.15ZM126.79,148.28c.2-.26.09-.38-.17-.17-.2.26-.09.38.17.17ZM129.58,165.43c-1.85-1.33-2.65-3.41-2.96-5.66-.13-.94-.35-1.92,0-2.85,1.33-3.52,3.67-5.08,5.08-8.25-1.8,2.2-3.59,4.23-4.67,6.45-.21-.58.52-.79.01-1.2-.56,1.47-1.01,2.92-1.34,4.58l.52-.47c-.16,2.39.27,6.94,3.36,7.4ZM127.66,152.87c0-.07-.05-.12-.12-.12s-.12.05-.12.12.05.12.12.12.12-.05.12-.12ZM127.46,153.47c0-.08-.07-.15-.15-.15s-.15.07-.15.15.07.15.15.15.15-.07.15-.15ZM134.62,155.75c0-.07-.05-.12-.12-.12s-.12.05-.12.12.05.12.12.12.12-.05.12-.12ZM133.92,156.73c.55-.05.61-.44.33-.62-.14.29-.13.47-.33.62ZM133.9,157.19c0-.07-.05-.12-.12-.12s-.12.05-.12.12.05.12.12.12.12-.05.12-.12ZM133.66,157.67c0-.07-.05-.12-.12-.12s-.12.05-.12.12.05.12.12.12.12-.05.12-.12ZM131.71,161.15c.34-.57.61-1.12.67-1.67-.55.5-.7,1.07-.95,1.69.13.27.33.28.28-.02ZM137.76,165.17c-.02-1.08.49-2.73,1.66-2.79.09-.82.53-1.8.39-2.69-.5,1.45-1.22,2.74-2.09,4.07-.49.76-1.04,1.63-.58,2.46-.01-.56.47-.8.61-1.05ZM131.5,161.75c0-.07-.05-.12-.12-.12s-.12.05-.12.12.05.12.12.12.12-.05.12-.12ZM139.66,162.95c0-.07-.05-.12-.12-.12s-.12.05-.12.12.05.12.12.12.12-.05.12-.12ZM140.28,164.02c-.08-.43-.3-.6-.62-.69.15.36.4.49.62.69ZM148.47,164.83c.56.12,1.08.36,1.54.02-2.03-.41-5.01-1.7-6.79-.64l3.02.23c-.25.33-.57.43-.85.74,1.53.37,1.89-.6,3.08-.35ZM142.47,165.45c-1.13.51-2.27.26-3.03-.52-.02-.55-.27-.45-.32.06.78,1.22,2.28,1.57,3.54.73.53-.03.33-.32-.2-.27ZM161.7,165.12c-.13-.43-.9-.6-.92-.1-.01.33.88.3.92.1ZM150.62,165.11c0-.08-.07-.15-.15-.15s-.15.07-.15.15.07.15.15.15.15-.07.15-.15ZM163.66,165.38c-.47-.19-.63-.18-.82-.36-.12.04-.3.21-.39.43.52.03.85.12,1.21-.06ZM155.53,165.59c-1.21-.28-3-.57-3.89-.22l2,.28c.65.09,1.33.15,1.89-.05ZM166.33,165.64c-.42-.24-1.99-.84-2.2.06.79,0,1.39.11,2.2-.06ZM128.41,169.12c1.55,1.75-.17,2.38,1.06,4.3.32-.33.26-.63.24-.94-.11-1.46-.18-2.87-.11-4.37.06-1.15-.36-2.18-1.46-2.6.37.56.9.88.97,1.55-.36.12-.68-.02-.82.44h1.07s-.08,2.33-.08,2.33c-.3-.3-.4-.63-.87-.7ZM160.05,165.89l-1.58-.26c-.59-.1-1.11-.13-1.56.3,1.2.04,2.12.1,3.13-.03ZM119.76,171.25c2.01-.64,4.59-3.17,4.4-5.42-.66,1.09-2.03,3.3-3.12,4.28l-1.27,1.14ZM125.87,166.2c-.06-.03-.2-.26-.32-.21-.12.6-.46.91-.89,1.53.37.57,1.38-1.22,1.21-1.31ZM115.18,166.33c-.57-.21-.84-.23-.98.04.43.1.72.15.98-.04ZM138.94,166.31c0-.07-.05-.12-.12-.12s-.12.05-.12.12.05.12.12.12.12-.05.12-.12ZM145.73,166.47c-.12-.35-.4-.38-.55-.15l.58.6c.2-.05.07-.17-.03-.45ZM139.42,166.55c0-.07-.05-.12-.12-.12s-.12.05-.12.12.05.12.12.12.12-.05.12-.12ZM146.59,168.14c.34-.16.53.21.84.36,1.38.69,3.13,1.68,4.44,2.49-.23-.58-.75-.82-1.28-1.09l-2.68-1.41c-.42-.22-.76-.52-1.3-.66-.2-.4-.5-.45-.96-.55-1.15-.24-2.24-.75-3.39-.21,1.47.15,2.68.57,3.89,1.28.18.11.36.14.43-.21ZM124.72,167.91c-.33-.15-.54.13-.64.47,0,.29-.2.41-.22.71.45-.25.64-.57.87-1.18ZM127.93,168.71c.32-.08.2-.45.11-.57-.05-.07-.14-.22-.37-.18-.43.08-.65.41-.68.72.33,0,.57.13.93.04ZM123.1,170.15c0-.07-.05-.12-.12-.12s-.12.05-.12.12.05.12.12.12.12-.05.12-.12ZM132.22,170.51c-.06-.27-.2-.41-.47-.47.06.27.2.41.47.47ZM128.97,170.5c-.34-.47-.8-.18-.48.28.23.28.4.25.48-.28ZM133.08,171.69c-.17-.52-.47-.74-.85-.92.22.45.55.65.85.92ZM152.38,171.11c0-.07-.05-.12-.12-.12s-.12.05-.12.12.05.12.12.12.12-.05.12-.12ZM134.54,171.92c-.14-.49-.55-.49-.88-.66.18.45.59.4.88.66ZM122.14,171.83c0-.07-.05-.12-.12-.12s-.12.05-.12.12.05.12.12.12.12-.05.12-.12ZM144.98,176.5c-.23-.67-1.32-.85-1.92-.71-.3.07-.15.36-.06.67-1.18-.46-2.21-1.25-2.99-2.4l-2.3-.22c-.38-.03-.83-.36-.31.23-.89-.23-1.53-.39-2.34-.78l1.26-.02c-.81-.24-1.5-.67-2.33-1.29-1.89-1.72,2.9,2.99,1.12,1.47,4.29,3.67,11.7,5.47,17.06,5.17-.64-.25-1.3-.34-1.92-.37-.99-.05-1.77-.53-2.64-.65-.63-.08-1.26.1-1.9-.12-.6-.21-.54-.44-.72-.97ZM135.33,172.05c1.15.63,2.38,1.03,3.73,1.12-.31-1.78-2.37-1.15-3.73-1.12ZM121.71,172.24c-.19.24.04.55.18.32.04-.07.26-.18.23-.26-.04-.12-.3-.21-.42-.06ZM120.98,173.78c.49-.17.76-.42.66-.88-.46.16-.41.56-.66.88ZM130.05,174.23c-.58.13-.72-.3-1.28-.4,0,.6.54.87.99,1.17.08-.41.09-.6.3-.77ZM143.69,175.37l-.2-.76c-.27-.03-.43-.08-.73.06.26.23.31.56.93.7ZM132.51,178.86c.65,1.2,1.01,2.28,1.26,3.44.33-.68-.11-1.23-.23-1.84-.43-2.36-1.36-3.37-2.37-5.62-.08.06-.14.3-.28.35-.09.03-.24-.09-.32,0,.96,1.85,1.04,1.72,1.76,3.54-.33.27-.75.38-.53.93.32-.18.25-.6.7-.79ZM116.42,178.35c1.43-.64,3.99-1.56,3.53-3.28-.73.18-.24,1.68-1.74,2.07-.79.21-1.41.56-1.79,1.21ZM154.3,178.07c0-.07-.05-.12-.12-.12s-.12.05-.12.12.05.12.12.12.12-.05.12-.12ZM134.16,182.92c-.14-.25-.26-.15-.29.13.04.56.33.49.29-.13ZM134.62,184.19c-.06-.27-.2-.41-.47-.47.06.27.2.41.47.47Z"/>
      <path d="M139.85,118.96c.05.4-.26.54-.16.93.53-.27.74-.73.69-1.22.18,0,.4-.03.44-.16.07-.2.11-.55-.1-.53-.18.02-.28.09-.31.14.69-1.42,1.88-2.39,2.8-3.51.19-.23.58-.11.51-.5-.2.08-.27.23-.44.19.16-.44.4-.88.81-1.06,1.12-.5,1.85-1.47,2.85-2.01.37-.2.93-.06,1.4-.43,1.42-1.12,2.4-2.62,2.73-4.47l1.35-7.55c.46-2.58,1.12-4.99,2.24-7.23.31.47.19.83.32,1.13.37-.45.19-1.02.48-1.45.52-.78,1.04-1.5,1.14-2.4-.3,0-.44,0-.19-.17l3.36-5.29c1.08-1.7,2.25-3.3,3.04-5.18,1.35-3.2,1.21-6.74.66-10.14l-1.08-6.66-2.11-8.22c2.67.6,2.3,3.48,3.07,5.55,3.39-5.5,7.54-6.35,9.33-12.94.86-3.16,1.28-6.29.89-9.64,1.3.17,1.95,1.41,1.73,2.65l-1.08,6.05c.45.29,3.97-5.28,3.87-5.03l1.99-4.97c2.75,2.15-1.17,4.76-1.92,6.64-.07.17-.03.34.17.32,1.44-.23,3.01-2.63,4.65-1.61-2.97,1.67-5.51,3.72-7.83,6.22l-4.53,4.88c-2.6,2.8-5.94,6.27-6.44,10.28-.01.12.06,5.88.51,6.32.72-.92,1.02-1.95,1.62-2.94,1.55-2.58,3.54-4.73,5.8-6.69l6.3-5.47,9.87-9.31c.44-.41.77-.83,1.33-1.03-1.43,1.46-2.4,3.17-3.54,4.87-.82,1.24-3.15,2.72-4.13,3.91,3.11-1.28,10.41-7.29,13.7-4.55-5.33,1.56-10.13,3.76-14.7,6.66-2.51,1.59-7.32,4.24-8.75,6.62,3.47-1.12,6.48-2.43,9.69-3.65,2.24-.86,6.09-1.86,8.21-.72l2.05,1.1c.62.33,1.11.83,1.13,1.48-1.16-.33-2.11-.78-3.1-1.25-2.71-1.29-4.58-.35-7.1.3-5.37,1.39-9.49,2.69-13.44,6.72s-5,9.26-5.43,14.97c3.52-6.87,9.29-10.86,16.67-12.91,1.99-.55,3.84-1.33,5.69-2.19,1.01-.47,1.64-1.41,2.29-2.23.03,1.09-.83,1.73-1.59,2.24l-3.73,2.53c1.38.21,5.13.03,5.55,1.39-6.35-1.37-12.04.54-16.98,4.43-2.55,2-4.52,4.37-6.57,6.86-2.39,2.9-4.51,5.77-6.14,9.2-2.7,5.7-5.3,13.48-5.57,20.06,2.92-1.52,4.59-2.36,6.17-5.26,3.24-5.91.35-8.39,2.7-9.98.56-.38,1.63-.54,2.26-.02-.73.99-2.13.97-2.32,2.57-.17,1.46-.32,2.86-.23,4.32,1.14-.33,2.25-2.55,3.18-2.56-2.37,4.81-3.76,7.4-7.95,10.72-5.89,4.67-10.6,5.97-15.58,12.76-.52.71-1.09,1.33-1.39,2.21-.4,1.18-.86,2.28-1.03,3.63l4.11-1.76c.41-.18.73-.55,1.24-.39l-2.49,1.33c-.82.44-1.39,1.32-1.91,2.1-.55.82-1.2,1.32-1.89,2-2.91,2.89-4.21,6.72-4.56,10.79-.05.54.23,1.05-.44,1.23,0-1.75.2-3.34.28-5.07.28-6.09,2.49-13.09,5.9-17.94ZM154.17,97.82c.46-.61.49-3.02.27-3.64-.09,1.4-.58,2.73-.27,3.64ZM139.35,123.31c-.05-.52-.27-.78-.55-1.01-.25.17-.37.33-.32.63.32.23.51.44.88.38ZM137.78,125.65c-.05-.3-.27-.3-.32,0,.03.56.29.56.32,0ZM136.65,128.02c.44-.2.61-.92.1-.93-.34,0-.28.81-.1.93Z"/>
      <path d="M180.92,78.14c-.28.08-.3-.35,0-.28v.28Z"/>
      <path d="M140.38,118.67l-.53.28c.25-.36.17-.8.56-.84l-.03.55Z"/>
      <path d="M143.21,114.61c-.32.05-.19-.4.07-.32,0,.2-.04.29-.07.32Z"/>
      <path d="M144.72,112.07c2.94-5.87,3.77-10.96,1.03-17.09,1.29.51,1.8,1.45,2.59,2.46.86-2.37,1.17-4.69.71-7.01.24-.22.91-.23,1.03.09,2.44,6.56-1.5,13.18-2.91,19.6-.6.76-1.49,1.39-2.44,1.95Z"/>
      <path d="M155.74,183.43c.46.16.82.53.89.99-1.43-.22-2.61-.85-3.99-1.16l-8.24-1.88c-1.09-.25-1.97-1.07-3.15-1.11-.12-.19-.18-.38.1-.52.82.85,1.99.16,2.77.48s2.33,2.14,4.48,1.11c2.44.49,4.76,1.27,7.15,2.08Z"/>
      <path d="M160.06,36.84c1.79-2.17,4.13-1.31,4.64-6.53.97,1.9.52,4.07-1.32,5.27-1.31.86-2.66,1.47-4.26,1.98.2-.42.64-.37.93-.72Z"/>
    </g>
  </g>
</svg>